{"title":"Tim.and.Erics.Billion.Dollar.Movie.2012.DVDRip.XviD.AC3.","uid":6997395,"size":1455695198,"categoryP":"video","categoryS":"movies","magnet":"?xt=urn:btih:ef822edff031f5e213a072346237935d0a8c9137&amp;dn=Tim.and.Erics.Billion.Dollar.Movie.2012.DVDRip.XviD.AC3.&amp;tr=udp%3A%2F%2Ftracker.openbittorrent.com%3A80&amp;tr=udp%3A%2F%2Fopen.demonii.com%3A1337&amp;tr=udp%3A%2F%2Ftracker.coppersurfer.tk%3A6969&amp;tr=udp%3A%2F%2Fexodus.desync.com%3A6969","seeders":0,"leechers":0,"uploader":"moviesp2p","files":4,"time":1327933201,"description":" &lt;a href=&quot;http://www.imdb.com/title/tt1855401/&quot; rel=&quot;nofollow&quot; target=&quot;_NEW&quot;&gt;http://www.imdb.com/title/tt1855401/&lt;/a&gt;\n\n\nFormat                                   : AVI\nFormat/Info                              : Audio Video Interleave\nFile size                                : 1.35 GiB\nDuration                                 : 1h 33mn\nOverall bit rate                         : 2 067 Kbps\n\nVideo\nID                                       : 0\nFormat                                   : MPEG-4 Visual\nFormat profile                           : Advanced Simple@L5\nFormat settings, BVOP                    : 2\nFormat settings, QPel                    : No\nFormat settings, GMC                     : No warppoints\nFormat settings, Matrix                  : Default (H.263)\nCodec ID                                 : XVID\nCodec ID/Hint                            : XviD\nDuration                                 : 1h 33mn\nBit rate                                 : 1 610 Kbps\nWidth                                    : 720 pixels\nHeight                                   : 400 pixels\nDisplay aspect ratio                     : 16:9\nFrame rate                               : 23.976 fps\nColor space                              : YUV\nChroma subsampling                       : 4:2:0\nBit depth                                : 8 bits\nScan type                                : Progressive\nCompression mode                         : Lossy\nBits/(Pixel*Frame)                       : 0.233\nStream size                              : 1.06 GiB (78%)\nWriting library                          : XviD 63\n\nAudio\nID                                       : 1\nFormat                                   : AC-3\nFormat/Info                              : Audio Coding 3\nMode extension                           : CM (complete main)\nCodec ID                                 : 2000\nDuration                                 : 1h 33mn\nSource duration                          : 1h 33mn\nBit rate mode                            : Constant\nBit rate                                 : 448 Kbps\nChannel(s)                               : 6 channels\nChannel positions                        : Front: L C R, Side: L R, LFE\nSampling rate                            : 48.0 KHz\nBit depth                                : 16 bits\nCompression mode                         : Lossy\nStream size                              : 301 MiB (22%)\nAlignment                                : Aligned on interleaves\nInterleave, duration                     : 42 ms (1.00 video frame)\n\n\n[IMG]http://i.imgur.com/pQ6Ag.png[/IMG]\n[IMG]http://i.imgur.com/L4wpT.png[/IMG]\n[IMG]http://i.imgur.com/L7Xy8.png[/IMG]","torrent":{"xt":"urn:btih:ef822edff031f5e213a072346237935d0a8c9137","amp;dn":"Tim.and.Erics.Billion.Dollar.Movie.2012.DVDRip.XviD.AC3.","amp;tr":["udp%3A%2F%2Ftracker.openbittorrent.com%3A80","udp%3A%2F%2Fopen.demonii.com%3A1337","udp%3A%2F%2Ftracker.coppersurfer.tk%3A6969","udp%3A%2F%2Fexodus.desync.com%3A6969"],"infoHash":"ef822edff031f5e213a072346237935d0a8c9137","infoHashBuffer":{"type":"Buffer","data":[239,130,46,223,240,49,245,226,19,160,114,52,98,55,147,93,10,140,145,55]},"announce":[],"urlList":[]}}